<svg xmlns="http://www.w3.org/2000/svg" width="192" height="192" viewBox="0 0 192 192" role="img" aria-labelledby="title desc">
  <title id="title">DECODE app icon</title>
  <desc id="desc">Abstract QR and scan mark.</desc>
  <defs>
    <linearGradient id="bg" x1="24" y1="18" x2="168" y2="174" gradientUnits="userSpaceOnUse">
      <stop offset="0" stop-color="#F0F9FF"/>
      <stop offset="1" stop-color="#BAE6FD"/>
    </linearGradient>
    <linearGradient id="core" x1="60" y1="52" x2="132" y2="140" gradientUnits="userSpaceOnUse">
      <stop offset="0" stop-color="#0EA5E9"/>
      <stop offset="1" stop-color="#0369A1"/>
    </linearGradient>
  </defs>
  <rect x="8" y="8" width="176" height="176" rx="40" fill="url(#bg)"/>
  <rect x="8" y="8" width="176" height="176" rx="40" fill="none" stroke="#7DD3FC" stroke-width="4"/>
  <path d="M56 68c0-8 6-14 14-14h22v16H72v20H56V68Z" fill="#0F172A"/>
  <path d="M136 68c0-8-6-14-14-14h-22v16h20v20h16V68Z" fill="#0F172A"/>
  <path d="M56 124c0 8 6 14 14 14h22v-16H72v-20H56v22Z" fill="#0F172A"/>
  <path d="M136 124c0 8-6 14-14 14h-22v-16h20v-20h16v22Z" fill="#0F172A"/>
  <path d="M96 58 134 96 96 134 58 96 96 58Z" fill="url(#core)"/>
  <path d="M96 76 116 96 96 116 76 96 96 76Z" fill="#FFFFFF"/>
  <rect x="88" y="88" width="16" height="16" rx="4" fill="#0F172A"/>
  <path d="M40 96h30" stroke="#0284C7" stroke-width="10" stroke-linecap="round"/>
  <path d="M122 96h30" stroke="#0284C7" stroke-width="10" stroke-linecap="round"/>
</svg>
