<svg xmlns="http://www.w3.org/2000/svg" width="512" height="512" viewBox="0 0 512 512" role="img" aria-labelledby="title desc">
  <title id="title">DECODE abstract mark</title>
  <desc id="desc">A professional abstract QR and scanning mark in sky blue and slate.</desc>
  <defs>
    <linearGradient id="decode-bg" x1="80" y1="64" x2="448" y2="448" gradientUnits="userSpaceOnUse">
      <stop offset="0" stop-color="#F0F9FF"/>
      <stop offset="1" stop-color="#BAE6FD"/>
    </linearGradient>
    <linearGradient id="decode-core" x1="160" y1="136" x2="360" y2="384" gradientUnits="userSpaceOnUse">
      <stop offset="0" stop-color="#0EA5E9"/>
      <stop offset="1" stop-color="#0369A1"/>
    </linearGradient>
  </defs>
  <rect x="32" y="32" width="448" height="448" rx="104" fill="url(#decode-bg)"/>
  <rect x="32" y="32" width="448" height="448" rx="104" fill="none" stroke="#7DD3FC" stroke-width="8"/>
  <path d="M150 178c0-20 16-36 36-36h60v42h-54v54h-42v-60Z" fill="#0F172A"/>
  <path d="M366 178c0-20-16-36-36-36h-60v42h54v54h42v-60Z" fill="#0F172A"/>
  <path d="M150 334c0 20 16 36 36 36h60v-42h-54v-54h-42v60Z" fill="#0F172A"/>
  <path d="M366 334c0 20-16 36-36 36h-60v-42h54v-54h42v60Z" fill="#0F172A"/>
  <path d="M256 158 354 256 256 354 158 256 256 158Z" fill="url(#decode-core)"/>
  <path d="M256 205 307 256 256 307 205 256 256 205Z" fill="#FFFFFF"/>
  <rect x="236" y="236" width="40" height="40" rx="10" fill="#0F172A"/>
  <path d="M120 256h76" stroke="#0284C7" stroke-width="24" stroke-linecap="round"/>
  <path d="M316 256h76" stroke="#0284C7" stroke-width="24" stroke-linecap="round"/>
  <circle cx="136" cy="136" r="18" fill="#38BDF8"/>
  <circle cx="376" cy="376" r="18" fill="#38BDF8"/>
</svg>
